<svg id="Layer_1" data-name="Layer 1" xmlns="http://www.w3.org/2000/svg" viewBox="0 0 150 150"><defs><style>.cls-1{fill:#5e6ff3;}</style></defs><title>150</title><path class="cls-1" d="M39.25,72.67s4.47-.39,4.47,3.57.91,8.5-5.27,8.5H31s-2.49.06-2.49-1.47-.45-2.86,2.86-2.86h7.22c.91,0,1.48.25,1.48-1.16s.39-2.67-1.59-2.67H33.13c-1.25,0-4.5-.34-4.5-4.25V69.16c0-1.13.31-4,4.16-4h8.33c1,0,2.26-.23,2.26,1.75s-.17,2.1-2.94,2.1h-7c-.62,0-.79,0-.79,1.08v1.81c0,.73.4.79,1.36.79S39.25,72.67,39.25,72.67Z"/><path class="cls-1" d="M63.83,71.88s-2.77,9.18-3.17,10.31-2.38,3.34-4.19,2-2.95-5.89-3.4-7.36-3-10-3.23-10.76A1.12,1.12,0,0,1,51,64.57c1,0,2.38-.34,2.83,1.31S57.6,78.59,57.6,78.59,61,68.37,61.4,67s1.16-2.62,2.62-2.62a2.62,2.62,0,0,1,2.48,2.22l3.56,12s3.86-12,4.31-12.94a2,2,0,0,1,2.49-1.26c1.42.3,1.7.64,1.31,2s-4.59,14.79-5.33,16-1.13,2.12-2.78,2.12-2.66-1.5-3.39-3.77S63.83,71.88,63.83,71.88Z"/><path class="cls-1" d="M91.76,64.91c-7.82,0-7.65,3.06-7.65,8v7.25c0,2.1,2.61,4.45,4.65,4.45h6c6.69,0,6.69-3.82,6.69-5.75V72.33C101.45,65.82,99.58,64.91,91.76,64.91Zm5.95,14a1.65,1.65,0,0,1-1.64,1.65H89.61A1.64,1.64,0,0,1,88,79V70.69a1.63,1.63,0,0,1,1.64-1.64h6.46a1.64,1.64,0,0,1,1.64,1.64Z"/><path class="cls-1" d="M111.08,76.64v6c0,1.42-.29,1.87-1.87,1.87s-2.15.23-2.15-3.22V74.76c0-1.07.22-2,2.89-2h7c1.53,0,2.67.17,2.67-1.24s.68-2.72-1.42-2.72h-9.4c-1.7,0-2.67-3.86,1-3.86h8.44c1.58,0,5.21.85,5.21,6.07s-3.12,5.66-8.19,5.66Z"/><path class="cls-1" d="M109.61,55l3.55-4.49a41.6,41.6,0,0,0-6.31-8A42.74,42.74,0,0,0,35.21,62.27h5.11A37.86,37.86,0,0,1,76.64,34.94C90.61,34.94,102.07,42.33,109.61,55Z"/><path class="cls-1" d="M111.63,87a37.85,37.85,0,0,1-39.28,23.26l-4.86,4a50.65,50.65,0,0,0,9.15,1.13A42.78,42.78,0,0,0,116.92,87Z"/><path class="cls-1" d="M57.16,105.1A38,38,0,0,1,41.66,87h-5.3a42.74,42.74,0,0,0,10.08,15.92A43.55,43.55,0,0,0,53,108.32Z"/><path class="cls-1" d="M84.17,87c-13.79,13.47-27.79,24.88-39.71,32.34-6,3.76-11.33,6.38-15.39,7.57-3.39,1-5.92,1-6.92,0s-1-3.52,0-6.92c1.2-4,3.82-9.37,7.58-15.38a174.37,174.37,0,0,1,12.18-17L36.14,87c-4,5.22-7.62,10.27-10.58,15-9,14.41-11.33,24-6.89,28.4a8.17,8.17,0,0,0,6,2.19c5.21,0,12.7-3,22.36-9.08,13.08-8.18,28.54-20.94,43.52-35.93.2-.19.39-.39.58-.58Z"/><path class="cls-1" d="M133.41,15.68c-4.44-4.44-14-2.12-28.39,6.89A195.5,195.5,0,0,0,86.28,36.1,30.66,30.66,0,0,1,91.81,38a181.1,181.1,0,0,1,15.82-11.24c6-3.76,11.33-6.38,15.38-7.58a16.1,16.1,0,0,1,4.37-.75,3.57,3.57,0,0,1,2.55.74c1,1,1,3.52,0,6.92-1.2,4.06-3.82,9.38-7.58,15.39A199,199,0,0,1,107,62.39l6.09.32a193.19,193.19,0,0,0,13.45-18.63C135.53,29.68,137.85,20.12,133.41,15.68Z"/></svg>